<svg xmlns="http://www.w3.org/2000/svg" viewBox="0 0 400 220" fill="none">
  <g transform="translate(70,10)">
    <circle cx="70" cy="70" r="70" fill="#FFD000"/>
    <g fill="#000000">
      <ellipse cx="48" cy="42" rx="10.5" ry="12.5"/>
      <ellipse cx="92" cy="42" rx="10.5" ry="12.5"/>
      <path d="M70 38C48 38 31 55 31 76c0 11 4 21 11 28 3 10 11 17 22 20 4 1 8 1 13 0 11-3 20-10 22-20 7-7 11-17 11-28 0-21-17-38-39-38z"/>
      <circle cx="57" cy="66" r="4.5"/>
      <circle cx="83" cy="66" r="4.5"/>
      <ellipse cx="70" cy="78" rx="7" ry="5.5"/>
      <path stroke="#000000" stroke-width="2" stroke-linecap="round" d="M42 76h-10M98 76h10M42 82h-8M98 82h8M42 87h-7M98 87h7"/>
    </g>
    <path fill="#FFD000" d="M48 92h44c3 0 6 3 6 7v8c0 3-3 6-6 6H48c-3 0-6-3-6-6v-8c0-4 3-7 6-7z"/>
    <circle cx="56" cy="109" r="6.5" fill="#FFD000"/>
    <circle cx="84" cy="109" r="6.5" fill="#FFD000"/>
  </g>
  <text
    x="200"
    y="168"
    text-anchor="middle"
    fill="#000000"
    font-family="Inter, system-ui, -apple-system, Segoe UI, Roboto, Helvetica, Arial, sans-serif"
    font-size="44"
    font-weight="700"
    font-style="italic"
    letter-spacing="-0.5">OtterRide</text>
  <text
    x="200"
    y="205"
    text-anchor="middle"
    fill="#1A1A1A"
    font-family="Inter, system-ui, -apple-system, Segoe UI, Roboto, Helvetica, Arial, sans-serif"
    font-size="15"
    font-weight="600"
    letter-spacing="0.2">Modern rides. Yellow lane energy.</text>
</svg>
